<svg preserveAspectRatio="none" width="100%" height="100%" overflow="visible" style="display: block;" viewBox="0 0 16.5078 20" fill="none" xmlns="http://www.w3.org/2000/svg">
<g id="Icon">
<path id="Vector" d="M11.1703 7.08362L9.92944 10.8054C9.86191 11.0081 9.74812 11.1922 9.5971 11.3432C9.44608 11.4942 9.26196 11.608 9.05934 11.6755L5.33752 12.9164L6.57836 9.19456C6.64589 8.99194 6.75968 8.80782 6.9107 8.6568C7.06172 8.50577 7.24584 8.39199 7.44846 8.32446L11.1703 7.08362Z" stroke="var(--stroke-0, #FF6900)" stroke-width="1.37565" stroke-linecap="round" stroke-linejoin="round"/>
<path id="Vector_2" d="M8.2539 16.8783C12.0527 16.8783 15.1322 13.7988 15.1322 10C15.1322 6.20125 12.0527 3.12175 8.2539 3.12175C4.45515 3.12175 1.37565 6.20125 1.37565 10C1.37565 13.7988 4.45515 16.8783 8.2539 16.8783Z" stroke="var(--stroke-0, #FF6900)" stroke-width="1.37565" stroke-linecap="round" stroke-linejoin="round"/>
</g>
</svg>
