<svg preserveAspectRatio="none" width="100%" height="100%" overflow="visible" style="display: block;" viewBox="0 0 32 32" fill="none" xmlns="http://www.w3.org/2000/svg">
<g id="Icon">
<path id="Vector" d="M25.3333 18.6667C27.32 16.72 29.3333 14.3867 29.3333 11.3333C29.3333 9.38841 28.5607 7.52315 27.1855 6.14788C25.8102 4.77262 23.9449 4 22 4C19.6533 4 18 4.66667 16 6.66667C14 4.66667 12.3467 4 10 4C8.05508 4 6.18982 4.77262 4.81455 6.14788C3.43928 7.52315 2.66667 9.38841 2.66667 11.3333C2.66667 14.4 4.66667 16.7333 6.66667 18.6667L16 28L25.3333 18.6667Z" stroke="var(--stroke-0, #FF6900)" stroke-width="2.66667" stroke-linecap="round" stroke-linejoin="round"/>
<path id="Vector_2" d="M16 6.66667L12.0533 10.6133C11.7824 10.8823 11.5674 11.2022 11.4207 11.5546C11.274 11.907 11.1984 12.2849 11.1984 12.6667C11.1984 13.0484 11.274 13.4264 11.4207 13.7788C11.5674 14.1312 11.7824 14.4511 12.0533 14.72C13.1467 15.8133 14.8933 15.8533 16.0533 14.8133L18.8133 12.28C19.5051 11.6523 20.4058 11.3045 21.34 11.3045C22.2742 11.3045 23.1749 11.6523 23.8667 12.28L27.8133 15.8267" stroke="var(--stroke-0, #FF6900)" stroke-width="2.66667" stroke-linecap="round" stroke-linejoin="round"/>
<path id="Vector_3" d="M24 20L21.3333 17.3333" stroke="var(--stroke-0, #FF6900)" stroke-width="2.66667" stroke-linecap="round" stroke-linejoin="round"/>
<path id="Vector_4" d="M20 24L17.3333 21.3333" stroke="var(--stroke-0, #FF6900)" stroke-width="2.66667" stroke-linecap="round" stroke-linejoin="round"/>
</g>
</svg>
